PathFileType	4	(X/Y/Z)	G:/Ayumi_testdata/vicon/updated_static_jc/static_00.trc	
DataRate	CameraRate	NumFrames	NumMarkers	Units	OrigDataRate	OrigDataStartFrame	OrigNumFrames	
200.00	200.00	4	66	mm	200.00	148	295	
Frame#	Time	LASI			RASI			RSACR			LSACR			USACR			LBAR			RBAR			RHEE			RMT1			RMT5			RMT2			LHEE			LMT1			LMT5			LMT2			LMMAL			LMFC			LLFC			LLMAL			LTIB4			LTIB2			LTIB3			LTIB1			RMMAL			RMFC			RLFC			RLMAL			RTIB1			RTIB2			RTIB3			RTHI1			RTHI4			RTHI3			RTHI2			LTHI1			LTHI4			LTHI3			LTHI2			FHD			LBHD			RBHD			C7			T10			CLAV			LSHO			RSHO			LRAD			LUL			LRFIN			RRAD			RUL			RUFIN			RLEP			RMEP			LLEP			LMEP			LDUPA			LMUPA			LUUPA			RDUPA			RUUPA			RMUPA			RKJC			LKJC			LAKJC			RAKJC			
		X1	Y1	Z1	X2	Y2	Z2	X3	Y3	Z3	X4	Y4	Z4	X5	Y5	Z5	X6	Y6	Z6	X7	Y7	Z7	X8	Y8	Z8	X9	Y9	Z9	X10	Y10	Z10	X11	Y11	Z11	X12	Y12	Z12	X13	Y13	Z13	X14	Y14	Z14	X15	Y15	Z15	X16	Y16	Z16	X17	Y17	Z17	X18	Y18	Z18	X19	Y19	Z19	X20	Y20	Z20	X21	Y21	Z21	X22	Y22	Z22	X23	Y23	Z23	X24	Y24	Z24	X25	Y25	Z25	X26	Y26	Z26	X27	Y27	Z27	X28	Y28	Z28	X29	Y29	Z29	X30	Y30	Z30	X31	Y31	Z31	X32	Y32	Z32	X33	Y33	Z33	X34	Y34	Z34	X35	Y35	Z35	X36	Y36	Z36	X37	Y37	Z37	X38	Y38	Z38	X39	Y39	Z39	X40	Y40	Z40	X41	Y41	Z41	X42	Y42	Z42	X43	Y43	Z43	X44	Y44	Z44	X45	Y45	Z45	X46	Y46	Z46	X47	Y47	Z47	X48	Y48	Z48	X49	Y49	Z49	X50	Y50	Z50	X51	Y51	Z51	X52	Y52	Z52	X53	Y53	Z53	X54	Y54	Z54	X55	Y55	Z55	X56	Y56	Z56	X57	Y57	Z57	X58	Y58	Z58	X59	Y59	Z59	X60	Y60	Z60	X61	Y61	Z61	X62	Y62	Z62	X63	Y63	Z63	X64	Y64	Z64	X65	Y65	Z65	X66	Y66	Z66	

148	0.735	133.09042	762.00049	918.14728	128.72125	984.47949	918.69745	308.48953	912.37878	950.11261	307.68054	852.47046	953.35797	296.80615	882.32678	966.48706	1270.84058	-346.50107	26.29972	1226.43262	1876.93762	26.28054	323.06580	1019.64624	39.83371	128.16655	1043.31360	43.44426	165.06242	1113.66003	34.82861	140.17386	1079.95691	42.69482	326.25195	745.16559	45.84559	134.38235	736.45648	46.32841	169.96460	662.78387	33.42968	143.16095	698.04614	45.90618	276.67862	778.71228	72.97507	232.46260	829.05347	456.95032	218.93231	721.40582	453.98303	278.80164	700.99835	69.14679	290.13647	691.47064	209.65007	313.69995	691.43707	271.01141	263.21680	684.43842	268.15417	301.41171	687.09808	314.33804	275.16617	994.08167	68.34579	234.89883	935.29236	446.53622	220.03296	1041.17639	461.29480	284.64578	1068.56616	72.25838	256.75049	1082.66663	319.29254	307.18057	1077.15784	314.10608	276.28885	1081.29199	256.18903	240.87967	1060.01294	783.82800	242.11028	1064.57007	635.08075	190.68965	1066.48022	636.97113	218.34714	1070.03699	697.01874	237.86096	698.61957	778.89722	235.83923	695.04712	646.56384	185.22816	693.37061	637.44122	199.51320	689.51080	701.18036	130.56433	776.14801	1593.18433	241.31348	787.13831	1576.23059	252.82877	910.60651	1571.23279	263.03445	858.24591	1391.21692	284.93283	877.44391	1007.39923	140.61049	872.96582	1328.32703	244.74974	725.40820	1380.93958	236.58833	987.13489	1396.67004	166.31082	222.85921	1359.40540	206.92278	222.57631	1354.83167	153.02277	130.91322	1338.89026	241.09673	1500.93652	1388.73816	287.99033	1500.07959	1382.53723	235.33968	1591.11292	1390.86780	293.23056	1271.56921	1329.41504	254.92091	1272.04016	1295.94189	221.58888	454.27405	1300.82141	180.64786	466.89865	1278.52393	237.80093	506.38425	1354.34265	201.86534	536.92120	1372.00549	238.86812	585.66724	1362.49902	266.29056	1205.98547	1381.93701	256.98920	1144.31274	1383.65576	216.01347	1212.59668	1385.18152	227.46590	988.23438	453.91551	225.69746	775.22964	455.46667	277.74013	739.85532	71.06093	279.90598	1031.32391	70.30209 
149	0.740	133.10866	761.98822	918.14648	128.73091	984.48035	918.70331	308.50754	912.38275	950.11871	307.69534	852.46716	953.35529	296.80832	882.32715	966.49207	1270.83630	-346.55130	26.30881	1226.43835	1876.95105	26.28811	323.05710	1019.64752	39.83500	128.16653	1043.31140	43.44416	165.06670	1113.65405	34.82093	140.16736	1079.96191	42.69775	326.24817	745.16760	45.84291	134.38678	736.45422	46.32307	170.01103	662.79895	33.38159	143.16161	698.03955	45.90862	276.67007	778.71411	72.97220	232.47296	829.04584	456.95215	218.92857	721.40112	453.97598	278.79877	700.99658	69.14658	290.14032	691.47705	209.64836	313.65799	691.25726	271.25894	263.20193	684.44470	268.15695	301.38214	687.10022	314.36441	275.16589	994.07324	68.34516	234.89746	935.28534	446.53668	220.04176	1041.17200	461.29300	284.63464	1068.56592	72.26701	256.74368	1082.67163	319.28226	307.17740	1077.15601	314.10007	276.29306	1081.28967	256.18808	240.89655	1060.00562	783.82556	241.95679	1064.79590	635.05078	190.69855	1066.45117	636.95929	218.23402	1070.08789	697.13452	237.88144	698.61810	778.89008	235.86813	695.03870	646.53619	185.23299	693.37311	637.44025	199.53461	689.50964	701.17859	130.55460	776.16156	1593.19653	241.30232	787.14746	1576.23425	252.83112	910.61853	1571.24353	263.04977	858.24054	1391.21191	284.93481	877.43854	1007.40094	140.63123	872.95831	1328.32507	244.77452	725.40912	1380.94739	236.60864	987.12946	1396.67175	166.30794	222.86816	1359.42737	206.93237	222.57907	1354.86780	153.02655	130.90887	1338.91833	241.08105	1500.93970	1388.73645	287.95926	1500.06763	1382.53748	235.32077	1591.11804	1390.87378	293.21750	1271.55823	1329.41370	254.90297	1272.03857	1295.94983	221.61040	454.26105	1300.84082	180.66806	466.88712	1278.53625	237.80263	506.38498	1354.35657	201.88385	536.91461	1372.00525	238.83835	585.64227	1362.67615	266.29303	1205.98132	1381.93457	256.99600	1144.30298	1383.65967	216.00200	1212.58264	1385.18079	227.46961	988.22867	453.91484	225.70077	775.22348	455.46407	277.73442	739.85535	71.05939	279.90027	1031.31958	70.30609 
150	0.745	133.11905	761.98334	918.15839	128.74469	984.46802	918.71069	308.51645	912.37653	950.11688	307.70566	852.46399	953.35736	296.82449	882.32898	966.48370	1270.84558	-346.47757	26.30588	1226.43408	1876.95154	26.29554	323.05750	1019.65338	39.83523	128.16843	1043.30164	43.44217	165.06154	1113.65381	34.82735	140.16544	1079.95850	42.69667	326.24658	745.17877	45.84848	134.38063	736.45367	46.33377	169.97661	662.78467	33.41523	143.16432	698.03625	45.91516	276.67828	778.71478	72.96795	232.50375	829.03644	456.94678	218.94899	721.39105	453.97672	278.79797	700.99194	69.14820	290.15811	691.47540	209.64827	313.72986	691.43567	271.02933	263.20496	684.44867	268.14944	301.27972	687.19263	314.35263	275.16235	994.07172	68.34622	234.90996	935.28931	446.53918	220.04207	1041.17224	461.29459	284.63943	1068.56714	72.26725	256.75400	1082.66809	319.28522	307.16025	1077.14783	314.08737	276.29846	1081.28235	256.18265	240.89079	1060.01685	783.82397	241.95901	1064.81152	635.04797	190.69844	1066.46228	636.99097	218.35777	1070.03333	697.03973	237.89809	698.62158	778.89758	235.88152	695.01752	646.54718	185.23009	693.36835	637.45001	199.54944	689.50549	701.18207	130.55087	776.16089	1593.19373	241.33777	787.13788	1576.23450	252.83224	910.62152	1571.23779	263.04733	858.23969	1391.21570	284.94995	877.44702	1007.39990	140.65021	872.94800	1328.31531	244.79640	725.39886	1380.95044	236.61967	987.11615	1396.66406	166.30537	222.86885	1359.45728	206.94153	222.57391	1354.88684	153.02333	130.90436	1338.95166	241.05321	1500.93433	1388.74756	287.95309	1500.06116	1382.54297	235.29099	1591.11658	1390.88098	293.20175	1271.56165	1329.41760	254.88817	1272.04651	1295.95557	221.61755	454.25931	1300.85876	180.68413	466.88290	1278.55115	237.79645	506.38177	1354.38696	201.89284	536.90997	1372.02258	238.82504	585.63403	1362.69080	266.27551	1205.98828	1381.94250	256.99841	1144.29932	1383.66772	215.99977	1212.57825	1385.18103	227.47601	988.23077	453.91689	225.72637	775.21375	455.46175	277.73813	739.85336	71.05807	279.90089	1031.31943	70.30674 
151	0.750	133.13721	761.97266	918.16125	128.75674	984.45636	918.71338	308.53033	912.38330	950.11993	307.73584	852.46643	953.35376	296.85181	882.32751	966.48334	1270.83325	-346.51544	26.29753	1226.43677	1876.95288	26.28992	323.06189	1019.64618	39.84055	128.15147	1043.30774	43.44765	165.07001	1113.65491	34.82867	140.16647	1079.95776	42.69812	326.25006	745.18024	45.84600	134.39243	736.45758	46.32595	169.97099	662.78198	33.42720	143.16472	698.03601	45.91663	276.67496	778.71771	72.97507	232.49921	829.03821	456.95593	218.96330	721.38879	453.98141	278.79324	700.99475	69.15174	290.16119	691.47601	209.65419	313.64590	691.26031	271.26440	263.20255	684.43372	268.15234	301.40692	687.09393	314.35571	275.16605	994.07758	68.33982	234.91162	935.28595	446.53329	220.04552	1041.17114	461.29376	284.63861	1068.56226	72.26552	256.74789	1082.66187	319.27945	307.17920	1077.16113	314.10229	276.29224	1081.29382	256.18628	240.90121	1060.01208	783.82513	241.96083	1064.80176	635.03748	190.69644	1066.44519	636.97101	218.35223	1070.02869	697.03186	237.92369	698.62396	778.91046	235.88017	695.01483	646.53326	185.25272	693.36481	637.43945	199.57742	689.49713	701.18848	130.56042	776.15070	1593.19189	241.32385	787.13477	1576.24426	252.83510	910.62878	1571.23767	263.05600	858.24341	1391.21399	284.97214	877.43201	1007.40430	140.66670	872.94672	1328.31128	244.81116	725.39410	1380.94617	236.62560	987.11145	1396.66309	166.32196	222.87144	1359.48767	206.95348	222.57014	1354.91040	153.03476	130.89650	1338.99084	241.03587	1500.92810	1388.75964	287.92163	1500.06555	1382.54993	235.26329	1591.11975	1390.88733	293.19321	1271.56726	1329.41565	254.87535	1272.03479	1295.95605	221.63478	454.24582	1300.86646	180.70068	466.87915	1278.55603	237.80164	506.37531	1354.40308	201.88304	536.91205	1372.03015	238.94922	585.59760	1362.40039	266.28391	1205.98413	1381.94202	256.99954	1144.30273	1383.66553	216.00079	1212.56055	1385.18201	227.47857	988.22855	453.91353	225.73125	775.21350	455.46867	277.73410	739.85623	71.06340	279.90233	1031.31992	70.30267 
